<svg xmlns="http://www.w3.org/2000/svg" xmlns:xlink="http://www.w3.org/1999/xlink" width="625.938" height="546.717" viewBox="0 0 625.938 546.717">
  <defs>
    <linearGradient id="linear-gradient" x1="0.5" y1="1" x2="0.5" gradientUnits="objectBoundingBox">
      <stop offset="0" stop-color="gray" stop-opacity="0.251"/>
      <stop offset="0.54" stop-color="gray" stop-opacity="0.122"/>
      <stop offset="1" stop-color="gray" stop-opacity="0.102"/>
    </linearGradient>
  </defs>
  <g id="undraw_coding_6mjf" transform="translate(0.005)">
    <rect id="Retângulo_17" data-name="Retângulo 17" width="36.124" height="18.757" transform="translate(530.547 196.596)" fill="#3b88f7" opacity="0.2"/>
    <rect id="Retângulo_18" data-name="Retângulo 18" width="36.124" height="18.757" transform="translate(533.325 219.521)" fill="#3b88f7" opacity="0.2"/>
    <rect id="Retângulo_19" data-name="Retângulo 19" width="36.124" height="18.757" transform="translate(503.454 60.438)" fill="#3b88f7" opacity="0.2"/>
    <rect id="Retângulo_20" data-name="Retângulo 20" width="36.124" height="18.757" transform="translate(529.157 81.973)" fill="#3b88f7" opacity="0.2"/>
    <rect id="Retângulo_21" data-name="Retângulo 21" width="36.124" height="18.757" transform="translate(459.689 61.827)" fill="#3b88f7" opacity="0.2"/>
    <rect id="Retângulo_22" data-name="Retângulo 22" width="36.124" height="18.757" transform="translate(575.701 103.508)" fill="#3b88f7" opacity="0.2"/>
    <rect id="Retângulo_23" data-name="Retângulo 23" width="36.124" height="18.757" transform="translate(531.936 104.897)" fill="#3b88f7" opacity="0.2"/>
    <rect id="Retângulo_24" data-name="Retângulo 24" width="36.124" height="18.757" transform="translate(485.392 83.362)" fill="#3b88f7" opacity="0.2"/>
    <rect id="Retângulo_25" data-name="Retângulo 25" width="36.124" height="18.757" transform="translate(573.617 248.003)" fill="#3b88f7" opacity="0.2"/>
    <rect id="Retângulo_26" data-name="Retângulo 26" width="36.124" height="18.757" transform="translate(529.852 249.392)" fill="#3b88f7" opacity="0.2"/>
    <path id="Caminho_5" data-name="Caminho 5" d="M256.644,332.5s50.914,50.914,22.174,126.433,49.26,201.209,49.26,201.209-.834-.125-2.383-.4C221.132,641.288,169.176,521.7,227.349,432.882,248.94,399.822,266.682,361.079,256.644,332.5Z" transform="translate(-165.75 -140.767)" fill="#3b88f7"/>
    <path id="Caminho_6" data-name="Caminho 6" d="M274.99,332.5s28.739,62.411,0,113.317-4.925,193.817,71.441,214.324" transform="translate(-184.095 -140.767)" fill="none" stroke="#535461" stroke-miterlimit="10" stroke-width="2"/>
    <path id="Caminho_7" data-name="Caminho 7" d="M149.63,628.64s58.1-9.253,63.39,42.813,111.719,59.284,111.719,59.284-.695.472-1.994,1.327c-87.871,57.659-171.865,36.742-159.2-39.847C168.248,663.743,167.859,635.143,149.63,628.64Z" transform="translate(-149.42 -230.989)" fill="#6c63ff"/>
    <path id="Caminho_8" data-name="Caminho 8" d="M149.63,628.64s58.1-9.253,63.39,42.813,111.719,59.284,111.719,59.284-.695.472-1.994,1.327c-87.871,57.659-171.865,36.742-159.2-39.847C168.248,663.743,167.859,635.143,149.63,628.64Z" transform="translate(-149.42 -230.989)" fill="#3b88f7" opacity="0.2"/>
    <path id="Caminho_9" data-name="Caminho 9" d="M149.63,628.92s45.092,9.9,41.389,50.9,66.968,90.177,133.72,51.2" transform="translate(-149.42 -231.268)" fill="none" stroke="#535461" stroke-miterlimit="10" stroke-width="2"/>
    <rect id="Retângulo_27" data-name="Retângulo 27" width="36.124" height="18.757" transform="translate(0.502 197.291)" fill="#3b88f7" opacity="0.2"/>
    <rect id="Retângulo_28" data-name="Retângulo 28" width="36.124" height="18.757" transform="translate(26.205 218.826)" fill="#3b88f7" opacity="0.2"/>
    <rect id="Retângulo_29" data-name="Retângulo 29" width="36.124" height="18.757" transform="translate(221.412)" fill="#3b88f7" opacity="0.2"/>
    <rect id="Retângulo_30" data-name="Retângulo 30" width="36.124" height="18.757" transform="translate(506.233 345.953)" fill="#3b88f7" opacity="0.2"/>
    <rect id="Retângulo_31" data-name="Retângulo 31" width="36.124" height="18.757" transform="translate(28.984 241.751)" fill="#3b88f7" opacity="0.2"/>
    <rect id="Retângulo_32" data-name="Retângulo 32" width="36.124" height="18.757" transform="translate(247.115 21.535)" fill="#3b88f7" opacity="0.2"/>
    <rect id="Retângulo_33" data-name="Retângulo 33" width="36.124" height="18.757" transform="translate(115.125 148.663)" fill="#3b88f7" opacity="0.2"/>
    <rect id="Retângulo_34" data-name="Retângulo 34" width="36.124" height="18.757" transform="translate(140.828 170.198)" fill="#3b88f7" opacity="0.2"/>
    <rect id="Retângulo_35" data-name="Retângulo 35" width="36.124" height="18.757" transform="translate(209.602 158.388)" fill="#3b88f7" opacity="0.2"/>
    <rect id="Retângulo_36" data-name="Retângulo 36" width="36.124" height="18.757" transform="translate(143.607 193.123)" fill="#3b88f7" opacity="0.2"/>
    <rect id="Retângulo_37" data-name="Retângulo 37" width="36.124" height="18.757" transform="translate(554.861 345.953)" fill="#3b88f7" opacity="0.2"/>
    <path id="Caminho_10" data-name="Caminho 10" d="M711.426,342.548a286.379,286.379,0,0,1-4.293-39.4h0a52.8,52.8,0,0,0-37.138-48.2c-3.793-1.167-7.968-2.258-12.581-3.237-40.431-8.586-52.713-1.091-54.109-.1a51.857,51.857,0,0,1-3.077-6.676c-.07-.236-.132-.472-.2-.695a51.761,51.761,0,0,0,13.831-31.184c6.745-6.836,10.684-15.089,10.684-23.974,0-7.642-2.918-14.811-8.024-21.014V156a52.5,52.5,0,0,0-52.5-52.5h-4.258a52.5,52.5,0,0,0-52.5,52.5v13.011A32.573,32.573,0,0,0,500,189.071c0,8.7,3.779,16.784,10.267,23.536A51.768,51.768,0,0,0,524.68,244.8c.285,1.973.577,4.092.861,6.329L453.225,266.4s-27.885,1.146-45.849,38.208C392.183,336,361.95,416.657,353,440.666h0c-1.619,4.349-2.536,6.843-2.536,6.843s.3-.3.861-.813l-.861,2.341s.438-.445,1.271-1.174c-1.264,10.045-1.445,27.294,11.712,29.441,11.032,1.8,39.458,2.543,60.931,2.841h1.487c14.234.188,25.064.188,25.064.188v-.188H681.867v-2.369a15.913,15.913,0,0,0-1.271-6.252l.32-.389a12.68,12.68,0,0,1,2.4,5.557,5.589,5.589,0,0,1-.111.584l.139-.354a5.951,5.951,0,0,1-.139,1.883s29.628-76.339,29.309-121.924A77.221,77.221,0,0,0,711.426,342.548Zm-184.682-81.1a52.968,52.968,0,0,1-.736-6.586V254.8C526.264,256.942,526.514,259.165,526.743,261.444ZM436.976,425.417v18.194l-11.393,2.438Z" transform="translate(-210.736 -70.85)" fill="url(#linear-gradient)"/>
    <path id="Caminho_11" data-name="Caminho 11" d="M480.637,57.57h0a52.5,52.5,0,0,1,52.5,52.5v22.4H428.14v-22.4A52.5,52.5,0,0,1,480.637,57.57Z" transform="translate(-130.653 -17.577)" fill="rgba(115,229,184,0.99)"/>
    <ellipse id="Elipse_5" data-name="Elipse 5" cx="59.84" cy="41.118" rx="59.84" ry="41.118" transform="translate(290.512 81.111)" fill="rgba(115,229,184,0.99)"/>
    <path id="Caminho_12" data-name="Caminho 12" d="M597.568,284.142s12.5,65.349,0,82.973,38.208,24.6,38.208,24.6l52.49-19.09,7.343-47s-31.956-17.992-25.335-54.338Z" transform="translate(-285.577 -122.079)" fill="#f7c4a7"/>
    <path id="Caminho_13" data-name="Caminho 13" d="M799.193,598.338s3.307,14.318-14.686,16.888a101.733,101.733,0,0,1-32.011-.382L748.53,578.88h41.855Z" transform="translate(-332.273 -215.99)" fill="#f7c4a7"/>
    <path id="Caminho_14" data-name="Caminho 14" d="M363.352,571.46s-7.947,32.3,10.045,35.214,84.057,2.938,84.057,2.938V571.4L427.54,577.8,399.461,550.87Z" transform="translate(-214.138 -207.438)" fill="#f7c4a7"/>
    <path id="Caminho_15" data-name="Caminho 15" d="M529.693,318.783l-70.309,14.866s-26.8,1.1-44.057,36.714S360.62,507.675,360.62,507.675s31.955-32.31,69.392,2.2l24.967-45.155-5.509,71.594H642.926V502.534s40.382,21.66,37.45,33.776c0,0,34.561-89.045,27.093-129.51a275.223,275.223,0,0,1-4.126-37.86h0a50.712,50.712,0,0,0-35.693-46.315c-3.64-1.118-7.642-2.167-12.087-3.105-41.487-8.809-52.1,0-52.1,0s-8.038,26.148-7.892,38c.181,15.234-21.66,25.335-21.66,25.335s-32.31-7.711-33.776-13.949S527.108,326.126,529.693,318.783Z" transform="translate(-213.838 -135.608)" opacity="0.1"/>
    <path id="Caminho_16" data-name="Caminho 16" d="M529.689,316.673,459.38,331.539s-26.8,1.1-44.057,36.714S360.61,505.579,360.61,505.579s31.956-32.31,69.392,2.2l24.967-45.155L449.46,534.2H642.923V500.424s40.382,21.66,37.45,33.776c0,0,34.561-89.045,27.093-129.51a275.223,275.223,0,0,1-4.126-37.86h0a50.712,50.712,0,0,0-35.693-46.315c-3.64-1.118-7.641-2.167-12.087-3.105-41.487-8.809-52.1,0-52.1,0s-8.037,26.148-7.891,38c.181,15.234-21.66,25.335-21.66,25.335s-32.31-7.711-33.776-13.949S527.105,324.016,529.689,316.673Z" transform="translate(-213.835 -134.964)" fill="#628dcb"/>
    <path id="Caminho_17" data-name="Caminho 17" d="M674.623,302.125a49.692,49.692,0,0,1-1.917-26.065L600,288.9s1.049,5.495,2.237,13.727a49.92,49.92,0,0,0,72.372-.507Z" transform="translate(-286.925 -123.535)" opacity="0.1"/>
    <path id="Caminho_18" data-name="Caminho 18" d="M681.384,237.725a49.931,49.931,0,1,1-99.854,1.209c.007-.4.007-.806.007-1.209a49.917,49.917,0,0,1,58.3-49.232h0a49.892,49.892,0,0,1,41.41,45.919Q681.384,236.058,681.384,237.725Z" transform="translate(-281.285 -96.586)" fill="#f7c4a7"/>
    <g id="Grupo_11" data-name="Grupo 11" transform="translate(300.245 93.039)" opacity="0.1">
      <path id="Caminho_19" data-name="Caminho 19" d="M614.062,193.912l.069-.042a49.89,49.89,0,0,0-32.6,46.843q0,.6,0,1.209a11.115,11.115,0,0,0,4.481-1.077c12.171-5.683,19.451-23.064,22.341-35.186C609.394,201.317,610.373,196.426,614.062,193.912Z" transform="translate(-581.53 -191.48)"/>
      <path id="Caminho_20" data-name="Caminho 20" d="M664.575,194.258a49.516,49.516,0,0,0-12.414-3.828,16.02,16.02,0,0,1,8.913,5.6,22.828,22.828,0,0,1,2.73,4.863,50.066,50.066,0,0,0-41.994.868c3.133,6.87,12.852,10.615,19.34,13.123q10.656,4.113,21.535,7.523l-6.419-5.21,14.5,2.306a25.116,25.116,0,0,0-1.014-8.545c2.779,2.237,6.461,2.987,9.476,4.863,5.648,3.564,8,10.42,11.08,16.36a10.841,10.841,0,0,0,3.237,4.168A49.955,49.955,0,0,0,664.575,194.258Z" transform="translate(-593.828 -190.43)"/>
    </g>
    <path id="Caminho_21" data-name="Caminho 21" d="M614.062,192.282l.069-.042a49.889,49.889,0,0,0-32.6,46.843q0,.6,0,1.209a11.116,11.116,0,0,0,4.481-1.077c12.171-5.683,19.451-23.064,22.341-35.186C609.394,199.715,610.373,194.8,614.062,192.282Z" transform="translate(-281.285 -97.943)" fill="#1d1f21"/>
    <path id="Caminho_22" data-name="Caminho 22" d="M664.575,192.638a49.517,49.517,0,0,0-12.414-3.828,16.02,16.02,0,0,1,8.913,5.6,22.83,22.83,0,0,1,2.73,4.863,50.066,50.066,0,0,0-41.994.868c3.133,6.87,12.852,10.615,19.34,13.123q10.656,4.113,21.535,7.523l-6.419-5.21,14.5,2.306a25.116,25.116,0,0,0-1.014-8.545c2.779,2.237,6.461,2.987,9.476,4.863,5.648,3.564,8,10.42,11.08,16.36a10.841,10.841,0,0,0,3.237,4.168A49.955,49.955,0,0,0,664.575,192.638Z" transform="translate(-293.583 -96.896)" fill="#1d1f21"/>
    <path id="Caminho_23" data-name="Caminho 23" d="M573.33,226.937s51.407-63.911,110.879,0l-5.141-14.317s-27.906-40.75-47.725-31.956-39.284,15.054-39.284,15.054Z" transform="translate(-278.782 -94.029)" opacity="0.1"/>
    <path id="Caminho_24" data-name="Caminho 24" d="M573.33,225.307s51.407-63.911,110.879,0l-5.141-14.317s-27.906-40.75-47.725-31.956-39.284,15.054-39.284,15.054Z" transform="translate(-278.782 -93.532)" fill="rgba(115,229,184,0.99)"/>
    <path id="Caminho_25" data-name="Caminho 25" d="M508.517,444.38s-11.011,29.371,4.4,55.8-13.581,37.45-13.581,37.45" transform="translate(-256.192 -174.925)" opacity="0.1"/>
    <path id="Caminho_26" data-name="Caminho 26" d="M767.137,406.33s19.09,24.231,6.606,45.891S762,526.017,762,526.017" transform="translate(-336.382 -163.308)" opacity="0.1"/>
    <path id="Caminho_27" data-name="Caminho 27" d="M331.077,553.3H543.283a17.624,17.624,0,0,1,17.624,17.624H313.46A17.624,17.624,0,0,1,331.077,553.3Z" transform="translate(-95.64 -168.931)" fill="#535461"/>
    <path id="Caminho_28" data-name="Caminho 28" d="M357.993,378.89H527.024a27.093,27.093,0,0,1,27.093,27.093v98.1H330.9v-98.1A27.093,27.093,0,0,1,357.993,378.89Z" transform="translate(-100.964 -115.681)" fill="#535461"/>
    <circle id="Elipse_6" data-name="Elipse 6" cx="13.22" cy="13.22" r="13.22" transform="translate(328.136 318.096)" fill="#fff"/>
    <path id="Caminho_29" data-name="Caminho 29" d="M577.56,194.716s50.518-50.49,105-.924" transform="translate(-280.073 -91.764)" fill="none" stroke="#000" stroke-miterlimit="10" stroke-width="1" opacity="0.1"/>
    <rect id="Retângulo_38" data-name="Retângulo 38" width="5.071" height="28.753" transform="translate(410.179 99.736)" fill="#847f7f"/>
    <path id="Caminho_30" data-name="Caminho 30" d="M580.62,170.35h0A17.478,17.478,0,0,1,598.1,187.828v1.125a17.478,17.478,0,0,1-17.478,17.478h0Z" transform="translate(-177.208 -52.01)" fill="#061019"/>
    <rect id="Retângulo_39" data-name="Retângulo 39" width="7.892" height="39.465" rx="3.946" transform="translate(400.029 116.652)" fill="#847f7f"/>
    <rect id="Retângulo_40" data-name="Retângulo 40" width="5.071" height="28.753" transform="translate(289.276 129.052) rotate(180)" fill="#847f7f"/>
    <path id="Caminho_31" data-name="Caminho 31" d="M0,0H0A17.478,17.478,0,0,1,17.478,17.478V18.6A17.478,17.478,0,0,1,0,36.082H0Z" transform="translate(296.042 154.984) rotate(180)" fill="#061019"/>
    <rect id="Retângulo_41" data-name="Retângulo 41" width="7.892" height="39.465" rx="3.946" transform="translate(299.425 156.672) rotate(180)" fill="#847f7f"/>
    <path id="Caminho_32" data-name="Caminho 32" d="M683.2,141.337c-6.87-14.283-21.834-31.553-54.088-32.935v-.042h-.389l-11.427.542v.056c-32.039,1.473-46.933,18.68-53.783,32.914a74.047,74.047,0,0,0-7.1,30.844l3.946-.1,3.946-.09a67.142,67.142,0,0,1,6.412-27.454c8.7-17.867,24.7-27.364,47.565-28.246h0l10.108-.563h0c22.876.875,38.889,10.386,47.579,28.246a67.142,67.142,0,0,1,6.426,27.468l3.946.09,3.946.1a74.048,74.048,0,0,0-7.086-30.83Z" transform="translate(-273.616 -72.334)" fill="#061019"/>
    <rect id="Retângulo_42" data-name="Retângulo 42" width="538.18" height="144.495" transform="translate(51.665 402.223)" fill="#d6d6e3"/>
    <rect id="Retângulo_43" data-name="Retângulo 43" width="538.18" height="18.757" transform="translate(51.665 411.948)" opacity="0.1"/>
    <rect id="Retângulo_44" data-name="Retângulo 44" width="610.371" height="18.757" transform="translate(15.563 400.139)" fill="#d6d6e3"/>
  </g>
</svg>
